<svg width="30" height="39" viewBox="0 0 30 39" fill="none" xmlns="http://www.w3.org/2000/svg">
<g clip-path="url(#clip0_1:7)">
<path d="M29.3629 14.5821H1.85261C1.50748 14.5821 1.22736 14.9386 1.22736 15.3778V34.4758C1.22736 36.6689 2.62915 38.4546 4.3535 38.4546H26.8619C28.5863 38.4546 29.988 36.6689 29.988 34.4758V15.3778C29.9881 14.9385 29.708 14.5821 29.3629 14.5821ZM28.7376 34.4758C28.7376 35.792 27.8961 36.863 26.8619 36.863H4.35356C3.3194 36.863 2.47786 35.792 2.47786 34.4758V16.1735H28.7376V34.4758Z" fill="white"/>
<path d="M29.9681 7.21813L28.9039 2.07921C28.6588 0.829855 27.656 0.0452705 26.6619 0.33174L1.46997 7.93908C0.97479 8.08232 0.555865 8.46585 0.289516 9.01655C0.0231675 9.56719 -0.0556117 10.2165 0.0694152 10.8468L1.24735 16.7735C1.3174 17.1331 1.57249 17.3735 1.85256 17.3735C1.90256 17.3735 1.95384 17.3672 2.0076 17.3496C2.34147 17.243 2.54404 16.8101 2.45899 16.3836L2.39024 16.0383L29.5015 8.19855C29.6666 8.14924 29.8104 8.01868 29.898 7.83412C29.9868 7.64948 30.0106 7.42665 29.9681 7.21813ZM2.08397 14.4945L1.28117 10.46C1.23991 10.2499 1.2674 10.0335 1.35497 9.84888C1.44377 9.66589 1.58381 9.53854 1.75385 9.48759L26.9457 1.88189C26.9907 1.86756 27.0369 1.86122 27.082 1.86122C27.3621 1.86122 27.6209 2.10629 27.6922 2.47392L28.5938 6.8267L2.08397 14.4945Z" fill="white"/>
<path d="M7.13458 14.6648C6.82444 14.4723 6.45182 14.6282 6.29427 15.0213L3.79332 21.3873C3.63951 21.7804 3.76454 22.2578 4.07344 22.4552C4.16471 22.5125 4.25978 22.5396 4.35356 22.5396C4.5824 22.5396 4.80373 22.3788 4.91375 22.0988L7.4147 15.7328C7.56851 15.3396 7.44342 14.8621 7.13458 14.6648Z" fill="white"/>
<path d="M13.3857 14.6648C13.0768 14.4723 12.7017 14.6282 12.5466 15.0213L10.0456 21.3873C9.89183 21.7804 10.0169 22.2578 10.3258 22.4552C10.417 22.5125 10.5121 22.5396 10.6059 22.5396C10.8347 22.5396 11.0561 22.3788 11.1648 22.0988L13.6658 15.7328C13.8195 15.3396 13.6945 14.8621 13.3857 14.6648Z" fill="white"/>
<path d="M19.6379 14.6648C19.3303 14.4723 18.9552 14.6282 18.7988 15.0213L16.2979 21.3873C16.1441 21.7804 16.2691 22.2578 16.578 22.4552C16.6693 22.5125 16.7644 22.5396 16.8581 22.5396C17.087 22.5396 17.3083 22.3788 17.4171 22.0988L19.918 15.7328C20.0718 15.3396 19.9468 14.8621 19.6379 14.6648Z" fill="white"/>
<path d="M25.8903 14.6648C25.5802 14.4723 25.2076 14.6282 25.0512 15.0213L22.5503 21.3873C22.3965 21.7804 22.5215 22.2578 22.8304 22.4552C22.9217 22.5125 23.0167 22.5396 23.1105 22.5396C23.3394 22.5396 23.5607 22.3788 23.6695 22.0988L26.1704 15.7328C26.3242 15.3396 26.1992 14.8621 25.8903 14.6648Z" fill="white"/>
<path d="M29.3629 20.948H1.85261C1.50748 20.948 1.22736 21.3045 1.22736 21.7438C1.22736 22.1831 1.50748 22.5396 1.85261 22.5396H29.3629C29.7092 22.5396 29.9881 22.1831 29.9881 21.7438C29.9881 21.3045 29.708 20.948 29.3629 20.948Z" fill="white"/>
<path d="M7.8986 13.1927L3.592 7.71155C3.34816 7.4012 2.95175 7.4012 2.7079 7.71155C2.46406 8.02189 2.46406 8.52642 2.7079 8.83676L7.0145 14.3195C7.13707 14.4738 7.29709 14.5518 7.45717 14.5518C7.61724 14.5518 7.77726 14.4739 7.8986 14.3179C8.14244 14.0075 8.14244 13.503 7.8986 13.1927Z" fill="white"/>
<path d="M14.0158 11.4245L9.70553 5.94333C9.46169 5.63299 9.06527 5.63299 8.82143 5.94333C8.57759 6.25367 8.57759 6.7582 8.82143 7.06854L13.1305 12.5497C13.2531 12.704 13.4131 12.7821 13.5732 12.7821C13.7333 12.7821 13.8933 12.7041 14.0159 12.5497C14.2597 12.2393 14.2597 11.7348 14.0158 11.4245Z" fill="white"/>
<path d="M20.1282 9.65634L15.8253 4.17364C15.5815 3.8633 15.1851 3.8633 14.9412 4.17364C14.6974 4.48399 14.6974 4.98852 14.9412 5.29886L19.2441 10.7816C19.3667 10.9359 19.5267 11.0139 19.6868 11.0139C19.8468 11.0139 20.0069 10.9375 20.1282 10.7816C20.372 10.4712 20.372 9.96668 20.1282 9.65634Z" fill="white"/>
<path d="M26.2379 7.88977L21.9338 2.40707C21.69 2.09673 21.2935 2.09673 21.0497 2.40707C20.8059 2.71742 20.8059 3.22195 21.0497 3.53229L25.3538 9.01498C25.4763 9.16933 25.6364 9.24737 25.7964 9.24737C25.9565 9.24737 26.1165 9.16941 26.2379 9.01498C26.4818 8.70464 26.4818 8.20011 26.2379 7.88977Z" fill="white"/>
</g>
<defs>
<clipPath id="clip0_1:7">
<rect width="30" height="38.1818" fill="white" transform="translate(0 0.272736)"/>
</clipPath>
</defs>
</svg>
